<svg xmlns="http://www.w3.org/2000/svg" width="48" height="58"><g transform="translate(-215,-269)"><clipPath id="c5"><polygon points="249.2,303.9 249.5,305.6 249.4,307.3 248.9,308.9 248.1,310.4 247.0,311.6 245.6,312.6 244.1,313.2 242.4,313.5 240.7,313.4 239.1,312.9 237.6,312.1 236.4,311.0 235.4,309.6 234.8,308.1 228.9,294.6 228.5,292.5 228.6,290.4 229.2,288.3 230.3,286.5 231.7,284.9 233.4,283.7 235.4,282.9 237.5,282.5 239.6,282.6 241.7,283.2 243.5,284.3 245.1,285.7 246.3,287.4 247.1,289.4"/></clipPath><polygon points="249.2,303.9 249.5,305.6 249.4,307.3 248.9,308.9 248.1,310.4 247.0,311.6 245.6,312.6 244.1,313.2 242.4,313.5 240.7,313.4 239.1,312.9 237.6,312.1 236.4,311.0 235.4,309.6 234.8,308.1 228.9,294.6 228.5,292.5 228.6,290.4 229.2,288.3 230.3,286.5 231.7,284.9 233.4,283.7 235.4,282.9 237.5,282.5 239.6,282.6 241.7,283.2 243.5,284.3 245.1,285.7 246.3,287.4 247.1,289.4" fill="#1a1311"/><polygon clip-path="url(#c5)" points="250.7,302.4 251.0,304.1 250.9,305.8 250.4,307.4 249.6,308.9 248.5,310.1 247.1,311.1 245.6,311.7 243.9,312.0 242.2,311.9 240.6,311.4 239.1,310.6 237.9,309.5 236.9,308.1 236.3,306.6 230.4,293.1 230.0,291.0 230.1,288.9 230.7,286.8 231.8,285.0 233.2,283.4 234.9,282.2 236.9,281.4 239.0,281.0 241.1,281.1 243.2,281.7 245.0,282.8 246.6,284.2 247.8,285.9 248.6,287.9" fill="#2c231f"/><path d="M235.0,295.0 L239.3,308.0" stroke="#1f1714" stroke-width="1.5" stroke-linecap="round" fill="none"/><path d="M239.5,295.0 L242.0,308.0" stroke="#1f1714" stroke-width="1.5" stroke-linecap="round" fill="none"/><path d="M244.0,295.0 L244.7,308.0" stroke="#1f1714" stroke-width="1.5" stroke-linecap="round" fill="none"/></g></svg>
