<svg xmlns="http://www.w3.org/2000/svg" width="35" height="19"><g transform="translate(-269,-172)"><polygon points="296.6,179.8 297.4,180.0 298.0,180.4 298.5,180.9 298.9,181.5 299.2,182.2 299.3,182.9 299.2,183.6 299.0,184.4 298.6,185.0 298.1,185.5 297.5,185.9 296.8,186.2 296.1,186.3 295.4,186.2 275.5,181.7 274.9,181.6 274.3,181.2 273.9,180.8 273.5,180.3 273.3,179.7 273.2,179.1 273.3,178.5 273.4,177.9 273.8,177.3 274.2,176.9 274.7,176.5 275.3,176.3 275.9,176.2 276.5,176.3" fill="#1f1714" stroke="#1f1714" stroke-width="6.4" stroke-linejoin="round"/><clipPath id="c24"><polygon points="296.6,179.8 297.4,180.0 298.0,180.4 298.5,180.9 298.9,181.5 299.2,182.2 299.3,182.9 299.2,183.6 299.0,184.4 298.6,185.0 298.1,185.5 297.5,185.9 296.8,186.2 296.1,186.3 295.4,186.2 275.5,181.7 274.9,181.6 274.3,181.2 273.9,180.8 273.5,180.3 273.3,179.7 273.2,179.1 273.3,178.5 273.4,177.9 273.8,177.3 274.2,176.9 274.7,176.5 275.3,176.3 275.9,176.2 276.5,176.3"/></clipPath><polygon points="296.6,179.8 297.4,180.0 298.0,180.4 298.5,180.9 298.9,181.5 299.2,182.2 299.3,182.9 299.2,183.6 299.0,184.4 298.6,185.0 298.1,185.5 297.5,185.9 296.8,186.2 296.1,186.3 295.4,186.2 275.5,181.7 274.9,181.6 274.3,181.2 273.9,180.8 273.5,180.3 273.3,179.7 273.2,179.1 273.3,178.5 273.4,177.9 273.8,177.3 274.2,176.9 274.7,176.5 275.3,176.3 275.9,176.2 276.5,176.3" fill="#c9bda8"/><polygon clip-path="url(#c24)" points="297.1,179.0 297.9,179.2 298.5,179.6 299.0,180.1 299.4,180.7 299.7,181.4 299.8,182.1 299.7,182.8 299.5,183.6 299.1,184.2 298.6,184.7 298.0,185.1 297.3,185.4 296.6,185.5 295.9,185.4 276.0,180.9 275.4,180.8 274.8,180.4 274.4,180.0 274.0,179.5 273.8,178.9 273.7,178.3 273.8,177.7 273.9,177.1 274.3,176.5 274.7,176.1 275.2,175.7 275.8,175.5 276.4,175.4 277.0,175.5" fill="#efe6d6"/><circle cx="296.0" cy="183.0" r="3.6" fill="#e8743a" stroke="#1f1714" stroke-width="1.8"/><circle cx="296.8" cy="182.2" r="1.6" fill="#ffd27a"/></g></svg>
