<svg xmlns="http://www.w3.org/2000/svg" width="48" height="68"><g transform="translate(-182,-236)"><polygon points="224.3,284.1 224.9,286.5 225.0,289.0 224.5,291.4 223.4,293.6 221.9,295.6 220.1,297.2 217.9,298.3 215.5,298.9 213.0,299.0 210.6,298.5 208.4,297.4 206.4,295.9 204.8,294.1 203.7,291.9 188.0,261.3 187.1,258.0 187.1,254.7 187.7,251.4 189.1,248.3 191.2,245.6 193.7,243.5 196.7,242.0 200.0,241.1 203.3,241.1 206.6,241.7 209.7,243.1 212.4,245.2 214.5,247.7 216.0,250.7" fill="#1f1714" stroke="#1f1714" stroke-width="6.4" stroke-linejoin="round"/><clipPath id="c15"><polygon points="224.3,284.1 224.9,286.5 225.0,289.0 224.5,291.4 223.4,293.6 221.9,295.6 220.1,297.2 217.9,298.3 215.5,298.9 213.0,299.0 210.6,298.5 208.4,297.4 206.4,295.9 204.8,294.1 203.7,291.9 188.0,261.3 187.1,258.0 187.1,254.7 187.7,251.4 189.1,248.3 191.2,245.6 193.7,243.5 196.7,242.0 200.0,241.1 203.3,241.1 206.6,241.7 209.7,243.1 212.4,245.2 214.5,247.7 216.0,250.7"/></clipPath><polygon points="224.3,284.1 224.9,286.5 225.0,289.0 224.5,291.4 223.4,293.6 221.9,295.6 220.1,297.2 217.9,298.3 215.5,298.9 213.0,299.0 210.6,298.5 208.4,297.4 206.4,295.9 204.8,294.1 203.7,291.9 188.0,261.3 187.1,258.0 187.1,254.7 187.7,251.4 189.1,248.3 191.2,245.6 193.7,243.5 196.7,242.0 200.0,241.1 203.3,241.1 206.6,241.7 209.7,243.1 212.4,245.2 214.5,247.7 216.0,250.7" fill="#2e1f17"/><polygon clip-path="url(#c15)" points="227.3,280.6 227.9,283.0 228.0,285.5 227.5,287.9 226.4,290.1 224.9,292.1 223.1,293.7 220.9,294.8 218.5,295.4 216.0,295.5 213.6,295.0 211.4,293.9 209.4,292.4 207.8,290.6 206.7,288.4 191.0,257.8 190.1,254.5 190.1,251.2 190.7,247.9 192.1,244.8 194.2,242.1 196.7,240.0 199.7,238.5 203.0,237.6 206.3,237.6 209.6,238.2 212.7,239.6 215.4,241.7 217.5,244.2 219.0,247.2" fill="#4a3326"/><g clip-path="url(#c15)"><polygon points="224.3,284.1 224.9,286.5 225.0,289.0 224.5,291.4 223.4,293.6 221.9,295.6 220.1,297.2 217.9,298.3 215.5,298.9 213.0,299.0 210.6,298.5 208.4,297.4 206.4,295.9 204.8,294.1 203.7,291.9 188.0,261.3 187.1,258.0 187.1,254.7 187.7,251.4 189.1,248.3 191.2,245.6 193.7,243.5 196.7,242.0 200.0,241.1 203.3,241.1 206.6,241.7 209.7,243.1 212.4,245.2 214.5,247.7 216.0,250.7" fill="none" stroke="#a08268" stroke-width="5"/><polygon points="230.9,276.4 231.5,278.8 231.6,281.3 231.1,283.7 230.0,285.9 228.5,287.9 226.7,289.5 224.5,290.6 222.1,291.2 219.6,291.3 217.2,290.8 215.0,289.7 213.0,288.2 211.4,286.4 210.3,284.2 194.6,253.6 193.7,250.3 193.7,247.0 194.3,243.7 195.7,240.6 197.8,237.9 200.3,235.8 203.3,234.3 206.6,233.4 209.9,233.4 213.2,234.0 216.3,235.4 219.0,237.5 221.1,240.0 222.6,243.0" fill="#4a3326"/></g><path d="M224.3,284.1 L218.8,279.8" stroke="#2e1f17" stroke-width="2" stroke-linecap="round"/><path d="M223.4,293.6 L219.4,287.9" stroke="#2e1f17" stroke-width="2" stroke-linecap="round"/><path d="M215.5,298.9 L213.6,292.2" stroke="#2e1f17" stroke-width="2" stroke-linecap="round"/><path d="M206.4,295.9 L206.7,289.0" stroke="#2e1f17" stroke-width="2" stroke-linecap="round"/><path d="M187.1,258.0 L193.1,261.7" stroke="#2e1f17" stroke-width="2" stroke-linecap="round"/><path d="M191.2,245.6 L195.0,251.5" stroke="#2e1f17" stroke-width="2" stroke-linecap="round"/><path d="M203.3,241.1 L204.3,248.0" stroke="#2e1f17" stroke-width="2" stroke-linecap="round"/></g></svg>
